{"title":"Devils Playground 2010 BRRip 480p H264 Feel-Free","uid":5883935,"size":1259072377,"categoryP":"video","categoryS":"movies","magnet":"?xt=urn:btih:3f5dc6d08f2a4d5ea28ac7ba59765e20f0accdae&amp;dn=Devils+Playground+2010+BRRip+480p+H264+Feel-Free&amp;tr=udp%3A%2F%2Ftracker.openbittorrent.com%3A80&amp;tr=udp%3A%2F%2Fopen.demonii.com%3A1337&amp;tr=udp%3A%2F%2Ftracker.coppersurfer.tk%3A6969&amp;tr=udp%3A%2F%2Fexodus.desync.com%3A6969","seeders":0,"leechers":1,"uploader":"neon","files":-1,"time":1286997391,"description":"As the world succumbs to a zombie apocalypse, Cole a hardened mercenary, is chasing the one person who can provide a cure. Not only to the plague but to Cole's own incumbent destiny. DEVIL'S PLAYGROUND is a cutting edge British horror film that features zombies portrayed by free runners for a terrifyingly authentic representation of the undead\n\n\nGenre:Action | Horror\nLanguage:English\n &lt;a href=&quot; http://www.imdb.com/title/tt1453245/&quot; rel=&quot;nofollow&quot; target=&quot;_NEW&quot;&gt; http://www.imdb.com/title/tt1453245/&lt;/a&gt;\nSource:720p BluRay x264-TiTANS\n\nGeneral\nComplete name :Devils Playground 2010 BRRip 480p H264 Feel-Free\nFormat : MPEG-4\nFormat profile : Base Media\nCodec ID : isom\nFile size : 1.17 GiB\nDuration : 1h 33mn\nOverall bit rate : 1 805 Kbps\nVideo #1\nCodec ID : avc1\nCodec ID/Info : Advanced Video Coding\nDuration : 1h 33mn\nBit rate mode : Variable\nBit rate : 1 564 Kbps\nWidth : 720 pixels\nHeight : 304 pixels\nDisplay aspect ratio : 16:9\nFrame rate mode : Constant\nFrame rate : 23.976 fps\nResolution : 24 bits\nColorimetry : 4:2:0\nScan type : Progressive\nBits/(Pixel*Frame) : 0.298\nStream size : 1.02 GiB (87%)\nAudio #2\nID : 2\nFormat : AAC\nFormat/Info : Advanced Audio Codec\nFormat version : Version 4\nFormat profile : LC\nFormat settings, SBR : No\nCodec ID : 40\nDuration : 1h 33mn\nBit rate mode : Variable\nBit rate : 256 Kbps\nChannel(s) : 6 channels\nChannel positions : Front: L C R, Rear: L R, LFE\nSampling rate : 48.0 KHz\nResolution : 16 bits\nStream size : 157 MiB (13%)","torrent":{"xt":"urn:btih:3f5dc6d08f2a4d5ea28ac7ba59765e20f0accdae","amp;dn":"Devils+Playground+2010+BRRip+480p+H264+Feel-Free","amp;tr":["udp%3A%2F%2Ftracker.openbittorrent.com%3A80","udp%3A%2F%2Fopen.demonii.com%3A1337","udp%3A%2F%2Ftracker.coppersurfer.tk%3A6969","udp%3A%2F%2Fexodus.desync.com%3A6969"],"infoHash":"3f5dc6d08f2a4d5ea28ac7ba59765e20f0accdae","infoHashBuffer":{"type":"Buffer","data":[63,93,198,208,143,42,77,94,162,138,199,186,89,118,94,32,240,172,205,174]},"announce":[],"urlList":[]}}